PathFileType	4	(X/Y/Z)	D:\Vicon data\Senior Design EMG regression\Subject 1- Steven\Session 1\steven - static trial01.trc
DataRate	CameraRate	NumFrames	NumMarkers	Units	OrigDataRate	OrigDataStartFrame	OrigNumFrames
100.0	100.0	6	60	mm	100.0	146	582	
Frame#	Time	HEAD			C7			CLAV			STUR			LSHO			LHAR2			LHME			LRAH			LRAD			LULN			LMCM			RSHO			RHAR2			RHME			RRAH			RRAD			RULN			RMCM			LASI			RASI			LPSI			RPSI			LLAT			LLFC			LKNE			LLAN			LHEE			LTOE			RLAT			RLFC			RKNE			RLAN			RHEE			RTOE			RSMT			RMAN			LSMT			LMAN			RSAT1			RSAT			RMFC			LSAT1			LSAT			LMFC			BARB			RHAR1			RHGT			RHHB			RHHF			RHLE			RMCR			RMCA			RMCI			LHHF			LHHB			LHGT			LHAR1			LHLE			LMCR			LMCI			
		X1	Y1	Z1	X2	Y2	Z2	X3	Y3	Z3	X4	Y4	Z4	X5	Y5	Z5	X6	Y6	Z6	X7	Y7	Z7	X8	Y8	Z8	X9	Y9	Z9	X10	Y10	Z10	X11	Y11	Z11	X12	Y12	Z12	X13	Y13	Z13	X14	Y14	Z14	X15	Y15	Z15	X16	Y16	Z16	X17	Y17	Z17	X18	Y18	Z18	X19	Y19	Z19	X20	Y20	Z20	X21	Y21	Z21	X22	Y22	Z22	X23	Y23	Z23	X24	Y24	Z24	X25	Y25	Z25	X26	Y26	Z26	X27	Y27	Z27	X28	Y28	Z28	X29	Y29	Z29	X30	Y30	Z30	X31	Y31	Z31	X32	Y32	Z32	X33	Y33	Z33	X34	Y34	Z34	X35	Y35	Z35	X36	Y36	Z36	X37	Y37	Z37	X38	Y38	Z38	X39	Y39	Z39	X40	Y40	Z40	X41	Y41	Z41	X42	Y42	Z42	X43	Y43	Z43	X44	Y44	Z44	X45	Y45	Z45	X46	Y46	Z46	X47	Y47	Z47	X48	Y48	Z48	X49	Y49	Z49	X50	Y50	Z50	X51	Y51	Z51	X52	Y52	Z52	X53	Y53	Z53	X54	Y54	Z54	X55	Y55	Z55	X56	Y56	Z56	X57	Y57	Z57	X58	Y58	Z58	X59	Y59	Z59	X60	Y60	Z60	
146	1.45	-72.647003	1646.2767	-330.45694	-65.419075	1452.7104	-136.1982	-66.785858	1399.9189	-274.03128	-73.491829	1254.4988	-316.87277	-181.38371	1470.2869	-183.7699	-357.38028	1449.9583	-195.49915	-476.58386	1353.1354	-180.50562	-454.16479	1425.6714	-271.19403	-476.88953	1400.6521	-411.43439	-535.44604	1427.3613	-404.56689	-510.10077	1416.2042	-500.45245	53.462292	1460.2533	-173.55937	212.93117	1441.6074	-188.27255	347.82611	1340.2729	-183.45207	299.91898	1419.3579	-264.89398	292.48621	1394.9728	-410.96548	353.00565	1431.4426	-409.97937	320.24066	1430.4718	-501.44016	-194.13544	965.36279	-306.06653	71.190292	994.29742	-283.24249	-132.95911	987.04681	-158.08078	-22.277966	987.86353	-145.77454	-216.1463	607.3479	-277.02811	-203.48035	501.8772	-241.03822	-161.87437	474.43365	-279.39835	-181.36108	93.504456	-174.20731	-134.55383	68.597321	-111.95277	-145.17601	49.358036	-372.32028	115.36928	683.86285	-271.53302	92.856491	502.65622	-249.97487	41.218147	477.67062	-295.42676	88.314072	104.56725	-188.92036	40.062313	63.560425	-119.34103	52.191002	47.176281	-383.06335	118.50997	40.324421	-336.8566	2.9556022	121.39333	-195.63763	-210.30942	43.624821	-323.35977	-101.59171	127.09178	-197.47185	87.33268	766.90192	-335.15881	43.420555	640.18518	-325.3111	-11.114156	490.93375	-240.56303	-208.13138	766.39355	-332.77353	-159.06993	631.66138	-324.03766	-107.86025	488.14621	-226.54297	-8.0115995	1285.4763	-86.56398	267.7045	1424.2938	-148.5215	134.36229	1459.29	-162.58168	81.269371	1442.6132	-122.19409	76.46946	1447.5063	-228.2205	358.37936	1421.9784	-176.92967	344.61554	1426.5597	-494.73911	356.59772	1420.4788	-454.82974	298.56003	1422.8746	-506.23059	-209.96469	1457.5409	-231.70401	-215.6051	1452.9862	-137.93843	-300.25549	1465.66	-156.1199	-412.12842	1439.2432	-149.82472	-494.59521	1433.672	-174.87468	-536.11639	1412.0745	-494.15445	-491.43372	1413.8314	-503.25082
147	1.46	-72.656158	1646.2235	-330.22131	-65.41301	1452.6855	-136.20732	-66.771568	1399.9185	-274.08655	-73.438461	1254.4716	-316.90375	-181.38156	1470.262	-183.77423	-357.38019	1449.9214	-195.50493	-476.58469	1353.0613	-180.50662	-454.1586	1425.6604	-271.20221	-476.91602	1400.6475	-411.43079	-535.46393	1427.3711	-404.55325	-510.15503	1416.2524	-500.41772	53.481384	1460.215	-173.58572	212.94487	1441.5486	-188.3037	347.86578	1340.2051	-183.52028	299.939	1419.2993	-264.94363	292.41626	1394.9722	-411.01428	353.01929	1431.4053	-410.01495	320.23373	1430.4377	-501.4761	-194.16064	965.34094	-306.06573	71.196381	994.28503	-283.29489	-132.9854	987.03418	-158.10658	-22.311073	987.84747	-145.84412	-216.12727	607.29187	-277.05984	-203.49777	501.83929	-241.02013	-161.86368	474.38901	-279.41562	-181.37431	93.512695	-174.18553	-134.57899	68.606171	-111.94444	-145.20103	49.336433	-372.33188	115.37164	683.84821	-271.57953	92.837173	502.63202	-250.01576	41.2533	477.63321	-295.5166	88.307304	104.54549	-188.94284	40.018433	63.537346	-119.37009	52.177055	47.144108	-383.08188	118.49509	40.305634	-336.87817	2.938215	121.37926	-195.62654	-210.32198	43.592899	-323.37018	-101.61572	127.08747	-197.47948	87.305229	766.89075	-335.21158	43.422871	640.14569	-325.34827	-11.115436	490.92035	-240.58571	-208.14948	766.36676	-332.78552	-159.0726	631.62128	-324.05682	-107.85864	488.1611	-226.54652	-8.0125208	1285.4504	-86.607994	267.70056	1424.1984	-148.53308	134.43683	1459.1583	-162.63687	81.295456	1442.5841	-122.20773	76.47683	1447.4758	-228.23334	358.41013	1421.8976	-176.95789	344.61572	1426.5378	-494.77902	356.58453	1420.4204	-454.87509	298.55569	1422.8463	-506.22971	-209.95161	1457.5155	-231.68985	-215.64897	1452.922	-137.9897	-300.26849	1465.6284	-156.12613	-412.11359	1439.2046	-149.81465	-494.59235	1433.6373	-174.84459	-536.14941	1412.0267	-494.01535	-491.48349	1413.7029	-503.16721
148	1.47	-72.560852	1646.3008	-330.21442	-65.379974	1452.7073	-136.21155	-66.771492	1399.9144	-274.10245	-73.476372	1254.521	-316.92276	-181.36	1470.2747	-183.78125	-357.3743	1449.9276	-195.49385	-476.53354	1353.0436	-180.492	-454.17197	1425.6339	-271.16138	-476.95166	1400.7197	-411.41794	-535.48907	1427.4178	-404.5137	-510.19812	1416.2913	-500.41324	53.495399	1460.2205	-173.57414	212.95685	1441.5161	-188.30251	347.845	1340.1294	-183.54555	299.96713	1419.2561	-264.96542	292.51062	1394.9034	-411.04703	353.02338	1431.3602	-410.04581	320.26581	1430.4331	-501.51175	-194.1665	965.35968	-306.08917	71.175064	994.28186	-283.31274	-132.9679	987.05219	-158.13138	-22.277018	987.87299	-145.83055	-216.11298	607.33661	-277.08563	-203.48611	501.87726	-241.0504	-161.88289	474.40686	-279.42862	-181.37971	93.554489	-174.19284	-134.564	68.611145	-111.94796	-145.19518	49.365105	-372.32346	115.34943	683.83002	-271.5994	92.845444	502.66953	-250.01588	41.261425	477.65692	-295.54431	88.306694	104.57293	-188.91779	40.022606	63.568703	-119.34961	52.16423	47.173595	-383.05005	118.47041	40.312847	-336.86682	2.9358711	121.4332	-195.60463	-210.31451	43.626209	-323.36209	-101.58734	127.12258	-197.48116	87.328598	766.91223	-335.24081	43.411018	640.1593	-325.37424	-11.115333	490.97064	-240.56276	-208.14563	766.38251	-332.80386	-159.06313	631.65588	-324.07034	-107.86763	488.15668	-226.49989	-8.0016079	1285.4711	-86.601067	267.71982	1424.1573	-148.54388	134.43004	1459.2264	-162.59303	81.335876	1442.5792	-122.2142	76.507599	1447.4805	-228.25005	358.4346	1421.8452	-176.97508	344.6297	1426.4894	-494.80045	356.80295	1420.5237	-454.95676	298.56747	1422.8379	-506.2905	-209.94232	1457.5336	-231.70312	-215.6049	1453.1613	-137.81644	-300.25235	1465.6349	-156.08412	-412.08612	1439.1869	-149.8013	-494.59372	1433.6268	-174.82117	-536.20441	1412.094	-494.10367	-491.57422	1413.9462	-503.30423
149	1.48	-72.573029	1646.3308	-330.14984	-65.341164	1452.667	-136.22435	-66.727943	1399.9249	-274.11514	-73.483337	1254.5137	-316.92194	-181.34439	1470.2479	-183.80353	-357.35831	1449.9205	-195.46729	-476.52805	1353.0011	-180.50735	-454.14938	1425.6405	-271.16238	-476.9588	1400.7279	-411.4202	-535.52063	1427.451	-404.47894	-510.24591	1416.2596	-500.39536	53.547104	1460.1869	-173.59978	213.00856	1441.4769	-188.32498	347.88553	1340.0887	-183.58061	299.99457	1419.2043	-264.96417	292.47458	1394.8706	-411.0173	353.05936	1431.3228	-410.07352	320.24969	1430.3964	-501.57065	-194.18051	965.31952	-306.10233	71.177086	994.2688	-283.33972	-132.97055	987.01929	-158.16527	-22.253571	987.85474	-145.85468	-216.11897	607.32648	-277.08664	-203.4817	501.85907	-241.06523	-161.8802	474.40863	-279.42462	-181.35782	93.528786	-174.19893	-134.55806	68.59671	-111.9604	-145.20879	49.344177	-372.33096	115.35022	683.84314	-271.60699	92.85434	502.66217	-250.03665	41.231655	477.66959	-295.54254	88.317276	104.54153	-188.9213	40.024754	63.539661	-119.36985	52.179333	47.167252	-383.06735	118.48905	40.309395	-336.86035	2.9554741	121.39797	-195.6252	-210.35434	43.663105	-323.39005	-101.59428	127.08178	-197.47987	87.313911	766.87439	-335.2627	43.432098	640.15503	-325.39395	-11.155718	490.91995	-240.56662	-208.13864	766.38739	-332.82333	-159.06448	631.64697	-324.10876	-107.85526	488.16016	-226.50928	-7.9636555	1285.4349	-86.63443	267.77487	1424.1038	-148.5546	134.47469	1459.087	-162.71313	81.365166	1442.4879	-122.27855	76.558037	1447.4594	-228.26517	358.47241	1421.7839	-177.01022	344.63147	1426.4409	-494.8457	356.86969	1420.494	-455.00836	298.58707	1422.7578	-506.34052	-209.92477	1457.5367	-231.71043	-215.59366	1452.9326	-137.98383	-300.2153	1465.6	-156.10593	-412.06519	1439.1566	-149.79539	-494.55145	1433.5973	-174.80692	-536.2804	1412.1222	-494.10962	-491.57666	1413.9485	-503.25983
150	1.49	-72.60894	1646.3893	-330.07782	-65.335098	1452.6614	-136.22652	-66.753288	1399.9135	-274.12048	-73.473167	1254.4935	-316.97281	-181.33832	1470.2401	-183.79468	-357.35095	1449.8926	-195.47032	-476.53882	1352.9933	-180.49065	-454.14468	1425.646	-271.14789	-476.95908	1400.7699	-411.41513	-535.54956	1427.4718	-404.46332	-510.3689	1416.2655	-500.444	53.586491	1460.1604	-173.6275	213.03427	1441.4349	-188.35661	347.88504	1340.0472	-183.60977	300.02832	1419.1566	-264.9899	292.50034	1394.8682	-411.06772	353.0748	1431.2754	-410.10666	320.25644	1430.3105	-501.55716	-194.18259	965.32556	-306.13925	71.183746	994.27533	-283.38245	-132.98213	987.03101	-158.19025	-22.2845	987.84753	-145.89388	-216.09309	607.28516	-277.12204	-203.49754	501.84821	-241.08723	-161.88776	474.37079	-279.4454	-181.34985	93.493317	-174.18671	-134.56323	68.587753	-111.96291	-145.19525	49.336075	-372.32712	115.35075	683.83392	-271.64325	92.876579	502.65421	-250.06941	41.265156	477.66977	-295.5856	88.331474	104.54041	-188.91957	40.028122	63.534946	-119.34917	52.190823	47.154175	-383.08289	118.49149	40.295776	-336.87091	2.939867	121.37159	-195.6326	-210.32297	43.600338	-323.36234	-101.59563	127.09855	-197.48943	87.303322	766.85266	-335.30096	43.421204	640.15662	-325.43027	-11.100133	490.95639	-240.63963	-208.12747	766.35846	-332.86011	-159.05708	631.6377	-324.12939	-107.84759	488.14484	-226.55937	-7.9628725	1285.4114	-86.643326	267.77829	1424.0542	-148.5912	134.54242	1459.0283	-162.71199	81.412277	1442.5244	-122.25573	76.565674	1447.4337	-228.29764	358.49112	1421.7421	-177.04552	344.64606	1426.3958	-494.8674	356.6449	1420.3044	-455.01007	298.58145	1422.7054	-506.36417	-209.92442	1457.5206	-231.71695	-215.58223	1453.0848	-137.81837	-300.20975	1465.5709	-156.07924	-412.02975	1439.1129	-149.77985	-494.54904	1433.5829	-174.80653	-536.29248	1412.1501	-494.0806	-491.65027	1413.9548	-503.28369
151	1.5	-72.622231	1646.4373	-329.99548	-65.318161	1452.6678	-136.2383	-66.719116	1399.9369	-274.1329	-73.501427	1254.5244	-316.98734	-181.32245	1470.2548	-183.78923	-357.341	1449.9225	-195.46614	-476.52954	1352.9996	-180.48372	-454.15878	1425.7103	-271.14426	-477.00943	1400.8179	-411.42175	-535.57733	1427.5464	-404.44025	-510.42719	1416.3075	-500.42944	53.592281	1460.1636	-173.64771	213.03697	1441.4205	-188.37	347.91446	1340.0394	-183.61823	300.03265	1419.1699	-265.02249	292.58319	1394.7269	-411.14514	353.07935	1431.2329	-410.15015	320.25467	1430.2333	-501.62827	-194.19191	965.33228	-306.17484	71.184402	994.27832	-283.42108	-132.99612	987.05151	-158.21365	-22.282312	987.8559	-145.91	-216.11223	607.2923	-277.10751	-203.50414	501.86032	-241.08347	-161.8752	474.3931	-279.47266	-181.3779	93.513588	-174.18507	-134.5872	68.596779	-111.95462	-145.21214	49.366844	-372.33023	115.33274	683.85278	-271.66888	92.843292	502.65704	-250.06065	41.231525	477.6517	-295.5871	88.305336	104.55226	-188.91985	40.019833	63.541515	-119.34246	52.155575	47.184132	-383.06586	118.48525	40.325298	-336.86566	2.9496696	121.42181	-195.61295	-210.32149	43.622143	-323.36398	-101.61596	127.10285	-197.47615	87.30246	766.87659	-335.33914	43.401775	640.14484	-325.44482	-11.127225	490.93134	-240.64438	-208.14018	766.37024	-332.87271	-159.0732	631.62366	-324.14474	-107.85069	488.15204	-226.55794	-7.9545879	1285.4253	-86.667404	267.81979	1424.057	-148.63876	134.55722	1459.0122	-162.7522	81.41494	1442.5267	-122.26349	76.589622	1447.4446	-228.31635	358.50433	1421.7391	-177.06088	344.64603	1426.3204	-494.90121	356.63406	1420.2581	-455.04596	298.5405	1422.6733	-506.35623	-209.8945	1457.5393	-231.70709	-215.66653	1452.7446	-138.11089	-300.18817	1465.5798	-156.05811	-412.04886	1439.1387	-149.73245	-494.55484	1433.593	-174.7733	-536.35986	1412.1802	-494.08008	-491.69684	1414.0375	-503.31091
